<mxfile host="Electron" agent="Mozilla/5.0 (X11; Linux x86_64) AppleWebKit/537.36 (KHTML, like Gecko) draw.io/28.0.6 Chrome/138.0.7204.100 Electron/37.2.3 Safari/537.36" version="28.0.6">
  <diagram name="Page-1" id="3r2IN5JSSLa7_mJZq_tv">
    <mxGraphModel dx="1422" dy="848" grid="1" gridSize="10" guides="1" tooltips="1" connect="1" arrows="1" fold="1" page="1" pageScale="1" pageWidth="850" pageHeight="1100" background="none" math="0" shadow="0">
      <root>
        <mxCell id="0" />
        <mxCell id="1" parent="0" />
        <mxCell id="_VVZaI78EPzKCeYsigL--3" value="main" style="rounded=0;whiteSpace=wrap;html=1;" vertex="1" parent="1">
          <mxGeometry x="360" y="400" width="120" height="40" as="geometry" />
        </mxCell>
        <mxCell id="_VVZaI78EPzKCeYsigL--9" style="edgeStyle=orthogonalEdgeStyle;rounded=0;orthogonalLoop=1;jettySize=auto;html=1;exitX=0.5;exitY=0;exitDx=0;exitDy=0;entryX=0;entryY=0.5;entryDx=0;entryDy=0;" edge="1" parent="1" source="_VVZaI78EPzKCeYsigL--4" target="_VVZaI78EPzKCeYsigL--7">
          <mxGeometry relative="1" as="geometry" />
        </mxCell>
        <mxCell id="_VVZaI78EPzKCeYsigL--4" value="déplacement" style="rounded=0;whiteSpace=wrap;html=1;" vertex="1" parent="1">
          <mxGeometry x="220" y="540" width="120" height="40" as="geometry" />
        </mxCell>
        <mxCell id="_VVZaI78EPzKCeYsigL--10" style="edgeStyle=orthogonalEdgeStyle;rounded=0;orthogonalLoop=1;jettySize=auto;html=1;exitX=0.5;exitY=0;exitDx=0;exitDy=0;entryX=0.5;entryY=1;entryDx=0;entryDy=0;" edge="1" parent="1" source="_VVZaI78EPzKCeYsigL--5" target="_VVZaI78EPzKCeYsigL--7">
          <mxGeometry relative="1" as="geometry" />
        </mxCell>
        <mxCell id="_VVZaI78EPzKCeYsigL--5" value="débug" style="rounded=0;whiteSpace=wrap;html=1;" vertex="1" parent="1">
          <mxGeometry x="360" y="560" width="120" height="40" as="geometry" />
        </mxCell>
        <mxCell id="_VVZaI78EPzKCeYsigL--11" style="edgeStyle=orthogonalEdgeStyle;rounded=0;orthogonalLoop=1;jettySize=auto;html=1;exitX=0.5;exitY=0;exitDx=0;exitDy=0;entryX=1;entryY=0.5;entryDx=0;entryDy=0;" edge="1" parent="1" source="_VVZaI78EPzKCeYsigL--6" target="_VVZaI78EPzKCeYsigL--7">
          <mxGeometry relative="1" as="geometry" />
        </mxCell>
        <mxCell id="_VVZaI78EPzKCeYsigL--6" value="communication" style="rounded=0;whiteSpace=wrap;html=1;" vertex="1" parent="1">
          <mxGeometry x="500" y="540" width="120" height="40" as="geometry" />
        </mxCell>
        <mxCell id="_VVZaI78EPzKCeYsigL--12" style="edgeStyle=orthogonalEdgeStyle;rounded=0;orthogonalLoop=1;jettySize=auto;html=1;exitX=0.5;exitY=0;exitDx=0;exitDy=0;entryX=0.5;entryY=1;entryDx=0;entryDy=0;" edge="1" parent="1" source="_VVZaI78EPzKCeYsigL--7" target="_VVZaI78EPzKCeYsigL--3">
          <mxGeometry relative="1" as="geometry" />
        </mxCell>
        <mxCell id="_VVZaI78EPzKCeYsigL--7" value="raspiIUT.h" style="rounded=0;whiteSpace=wrap;html=1;" vertex="1" parent="1">
          <mxGeometry x="360" y="490" width="120" height="40" as="geometry" />
        </mxCell>
      </root>
    </mxGraphModel>
  </diagram>
</mxfile>
